<?xml version="1.0" encoding="UTF-8" standalone="no"?>
<svg
   viewBox="0 0 900 240"
   width="900"
   height="240"
   role="img"
   aria-labelledby="title desc"
   version="1.1"
   id="svg10"
   xmlns="http://www.w3.org/2000/svg"
   xmlns:svg="http://www.w3.org/2000/svg">
  <title
     id="title">Primeira Igreja Batista na Vila do Ipsep</title>
  <desc
     id="desc">Assinatura horizontal com símbolo IBI em verde-lima, separador branco, nome da igreja em branco e degradê preto transparente ao fundo.</desc>
  <defs
     id="defs3">
    <linearGradient
       id="backgroundGradient"
       x1="0"
       y1="0"
       x2="0"
       y2="1">
      <stop
         offset="0%"
         stop-color="#000000"
         stop-opacity="0"
         id="stop1" />
      <stop
         offset="38%"
         stop-color="#000000"
         stop-opacity="0.18"
         id="stop2" />
      <stop
         offset="100%"
         stop-color="#000000"
         stop-opacity="0.90"
         id="stop3" />
    </linearGradient>
  </defs>
  <style
     id="style3">
    .logo {
      fill: #CDDC39;
      stroke: none;
      fill-rule: evenodd;
      clip-rule: evenodd;
    }

    .separator {
      fill: #FFFFFF;
      opacity: 0.9;
    }

    .church-name {
      fill: #FFFFFF;
      font-family: &quot;Noto Sans&quot;, Arial, sans-serif;
      font-size: 38px;
      font-weight: 700;
      letter-spacing: 0.3px;
    }
  </style>
  <rect
     x="0"
     y="0"
     width="900"
     height="240"
     fill="url(#backgroundGradient)"
     id="background-gradient" />
  <!-- Fundo transparente: não há retângulo de fundo. -->
  <!-- Símbolo IBI -->
  <g
     transform="translate(18 20) scale(1.18) translate(-329 -48)"
     id="g8">
    <!-- I esquerdo -->
    <g
       transform="translate(-4 0)"
       id="g4">
      <path
         class="logo"
         transform="translate(0 -5)"
         d="M373.95,117.43            c-11.23,0-20.37-8.1-20.37-18.06            c0-9.96,9.14-18.06,20.37-18.06            c11.23,0,20.37,8.1,20.37,18.06            C394.32,109.33,385.19,117.43,373.95,117.43z"
         id="path3" />
      <path
         class="logo"
         d="M355.12,183.32            c-0.42,0-0.83-0.1-1.21-0.31            c-0.79-0.44-1.28-1.27-1.28-2.17            l-0.11-37.6            l-21.05-0.07            c-1.03,0-1.95-0.64-2.32-1.59            c-0.37-0.96-0.11-2.04,0.64-2.74            l24.86-22.7            c0.46-0.42,1.06-0.65,1.68-0.65            h35.55            c1.38,0,2.49,1.11,2.49,2.49            v39.92            c0,0.86-0.44,1.66-1.17,2.11            l-36.78,22.92            C356.04,183.19,355.58,183.32,355.12,183.32z"
         id="path4" />
    </g>
    <!-- B central -->
    <path
       class="logo"
       d="M393.91,183.31          c-0.7,0-1.36-0.29-1.84-0.81          c-0.47-0.52-0.71-1.21-0.64-1.91          L400.67,78          c0.06-0.66,0.38-1.27,0.88-1.69          l33.6-28.04          c0.46-0.38,1.02-0.58,1.6-0.58          c0.39,0,0.79,0.09,1.15,0.28          c0.89,0.47,1.42,1.42,1.33,2.43          l-4.22,47.93          l15.34-19.54          c0.45-0.57,1.12-0.92,1.84-0.95          c0.04,0,0.08,0,0.12,0          c0.68,0,1.33,0.28,1.8,0.77          c10.97,11.52,16.77,25.38,16.77,40.09          C470.88,154.17,436.35,183.15,393.91,183.31z           M431.59,137.22          c3.78-4.09,5.81-8.82,5.81-13.73          c0-3.86-1.24-7.6-3.63-11.03          L431.59,137.22z"
       id="path5" />
    <!-- I direito -->
    <g
       transform="translate(4 0)"
       id="g7">
      <path
         class="logo"
         transform="translate(0 -5)"
         d="M490.82,117.43            c-11.23,0-20.37-8.1-20.37-18.06            c0-9.96,9.14-18.06,20.37-18.06            c11.23,0,20.37,8.1,20.37,18.06            C511.19,109.33,502.05,117.43,490.82,117.43z"
         id="path6" />
      <path
         class="logo"
         d="M509.84,183.32            c-0.46,0-0.92-0.13-1.32-0.38            l-36.59-22.92            c-0.73-0.46-1.17-1.25-1.17-2.11            v-39.92            c0-1.38,1.12-2.49,2.49-2.49            h35.17            c0.62,0,1.22,0.23,1.68,0.65            l24.87,22.7            c0.76,0.69,1.02,1.78,0.65,2.74            c-0.37,0.96-1.29,1.59-2.32,1.59            l-20.95,0.07            l-0.02,37.59            c0,0.91-0.49,1.74-1.28,2.18            C510.67,183.22,510.25,183.32,509.84,183.32z"
         id="path7" />
    </g>
  </g>
  <!-- Separador vertical -->
  <rect
     class="separator"
     x="285"
     y="42"
     width="4"
     height="156"
     rx="2"
     id="rect8" />
  <!-- Nome da igreja -->
  <g
     class="church-name"
     id="g10">
    <path
       d="m 337.084,50.868 q 5.244,0 7.638,2.28 2.432,2.242 2.432,6.194 0,2.356 -0.988,4.446 -0.988,2.052 -3.306,3.306 -2.28,1.254 -6.232,1.254 h -2.47 V 78 H 328.42 V 50.868 Z m -0.304,4.712 h -2.622 v 8.056 h 1.9 q 2.432,0 3.838,-0.95 1.444,-0.988 1.444,-3.154 0,-3.952 -4.56,-3.952 z m 23.70801,-4.712 q 5.548,0 8.17,2.014 2.66,2.014 2.66,6.118 0,1.862 -0.722,3.268 -0.684,1.368 -1.862,2.356 -1.14,0.95 -2.47,1.558 l 7.98,11.818 h -6.384 l -6.46,-10.412 h -3.078 V 78 h -5.738 V 50.868 Z m -0.418,4.712 h -1.748 v 7.334 h 1.862 q 2.85,0 4.066,-0.95 1.254,-0.95 1.254,-2.812 0,-1.938 -1.33,-2.736 -1.292,-0.836 -4.104,-0.836 z M 388.11,78 h -12.35 v -3.268 l 3.306,-1.52 V 55.656 l -3.306,-1.52 v -3.268 h 12.35 v 3.268 l -3.306,1.52 v 17.556 l 3.306,1.52 z m 16.412,0 -6.536,-21.28 h -0.152 q 0.038,0.76 0.114,2.28 0.076,1.52 0.152,3.268 0.076,1.71 0.076,3.116 V 78 h -5.13 V 50.868 h 7.828 l 6.422,20.748 h 0.114 l 6.802,-20.748 h 7.828 V 78 h -5.358 V 65.156 q 0,-1.292 0.038,-2.964 0.076,-1.672 0.114,-3.154 0.076,-1.52 0.114,-2.28 h -0.152 L 409.804,78 Z m 40.27603,0 h -15.618 V 50.868 h 15.618 v 4.712 h -9.88 v 5.966 h 9.196 v 4.712 h -9.196 v 6.992 h 9.88 z m 16.10798,0 h -12.35 v -3.268 l 3.306,-1.52 V 55.656 l -3.306,-1.52 v -3.268 h 12.35 v 3.268 l -3.306,1.52 v 17.556 l 3.306,1.52 z m 12.84,-27.132 q 5.548,0 8.17,2.014 2.66,2.014 2.66,6.118 0,1.862 -0.722,3.268 -0.684,1.368 -1.862,2.356 -1.14,0.95 -2.47,1.558 l 7.98,11.818 h -6.384 l -6.46,-10.412 h -3.078 V 78 h -5.738 V 50.868 Z m -0.418,4.712 h -1.748 v 7.334 h 1.862 q 2.85,0 4.066,-0.95 1.254,-0.95 1.254,-2.812 0,-1.938 -1.33,-2.736 -1.292,-0.836 -4.104,-0.836 z M 507.828,78 505.852,71.54 h -9.88 L 493.996,78 h -6.194 l 9.576,-27.246 h 7.03 L 514.022,78 Z m -5.32,-17.594 q -0.19,-0.646 -0.494,-1.634 -0.304,-0.988 -0.608,-2.014 -0.304,-1.026 -0.494,-1.786 -0.19,0.76 -0.532,1.9 -0.304,1.102 -0.608,2.128 -0.266,0.988 -0.418,1.406 l -1.938,6.308 h 7.068 z"
       id="text8"
       aria-label="PRIMEIRA" />
    <path
       d="m 338.566,128 h -12.35 v -3.268 l 3.306,-1.52 v -17.556 l -3.306,-1.52 v -3.268 h 12.35 v 3.268 l -3.306,1.52 v 17.556 l 3.306,1.52 z M 353.8,112.762 h 10.754 v 14.06 q -2.128,0.722 -4.446,1.14 -2.28,0.418 -5.206,0.418 -6.08,0 -9.348,-3.572 -3.268,-3.572 -3.268,-10.412 0,-4.256 1.634,-7.372 1.672,-3.116 4.826,-4.826 3.154,-1.71 7.714,-1.71 2.166,0 4.256,0.456 2.09,0.456 3.8,1.216 l -1.9,4.598 q -1.254,-0.646 -2.85,-1.064 -1.596,-0.418 -3.344,-0.418 -2.508,0 -4.37,1.14 -1.824,1.14 -2.85,3.23 -0.988,2.052 -0.988,4.864 0,2.66 0.722,4.712 0.722,2.052 2.28,3.23 1.558,1.14 4.066,1.14 1.216,0 2.052,-0.114 0.874,-0.114 1.596,-0.266 v -5.662 h -5.13 z m 25.41803,-11.894 q 5.548,0 8.17,2.014 2.66,2.014 2.66,6.118 0,1.862 -0.722,3.268 -0.684,1.368 -1.862,2.356 -1.14,0.95 -2.47,1.558 l 7.98,11.818 h -6.384 l -6.46,-10.412 h -3.078 V 128 h -5.738 v -27.132 z m -0.418,4.712 h -1.748 v 7.334 h 1.862 q 2.85,0 4.066,-0.95 1.254,-0.95 1.254,-2.812 0,-1.938 -1.33,-2.736 -1.292,-0.836 -4.104,-0.836 z M 412.31202,128 h -15.618 v -27.132 h 15.618 v 4.712 h -9.88 v 5.966 h 9.196 v 4.712 h -9.196 v 6.992 h 9.88 z m 5.39197,7.98 q -1.102,0 -1.938,-0.152 -0.836,-0.114 -1.444,-0.266 v -4.788 q 0.608,0.152 1.292,0.266 0.646,0.114 1.406,0.114 0.988,0 1.786,-0.38 0.836,-0.38 1.292,-1.444 0.456,-1.064 0.456,-3.04 v -25.422 h 5.738 v 25.384 q 0,3.496 -1.102,5.624 -1.064,2.166 -3.002,3.116 -1.938,0.988 -4.484,0.988 z m 32.33397,-7.98 -1.976,-6.46 h -9.88 l -1.976,6.46 h -6.194 l 9.576,-27.246 h 7.03 l 9.614,27.246 z m -5.32,-17.594 q -0.19,-0.646 -0.494,-1.634 -0.304,-0.988 -0.608,-2.014 -0.304,-1.026 -0.494,-1.786 -0.19,0.76 -0.532,1.9 -0.304,1.102 -0.608,2.128 -0.266,0.988 -0.418,1.406 l -1.938,6.308 h 7.068 z m 33.85003,-9.538 q 5.434,0 8.208,1.52 2.774,1.52 2.774,5.358 0,2.318 -1.102,3.914 -1.064,1.596 -3.078,1.938 v 0.19 q 1.368,0.266 2.47,0.95 1.102,0.684 1.748,1.976 0.646,1.292 0.646,3.42 0,3.686 -2.66,5.776 -2.66,2.09 -7.296,2.09 h -10.146 v -27.132 z m 0.646,10.754 q 2.508,0 3.458,-0.798 0.988,-0.798 0.988,-2.318 0,-1.558 -1.14,-2.242 -1.14,-0.684 -3.61,-0.684 h -3.04 v 6.042 z m -3.344,4.56 v 7.068 h 3.762 q 2.584,0 3.61,-0.988 1.026,-1.026 1.026,-2.698 0,-1.52 -1.064,-2.432 -1.026,-0.95 -3.762,-0.95 z m 36.70403,11.818 -1.976,-6.46 h -9.88 l -1.976,6.46 h -6.194 l 9.576,-27.246 h 7.03 l 9.614,27.246 z m -5.32,-17.594 q -0.19,-0.646 -0.494,-1.634 -0.304,-0.988 -0.608,-2.014 -0.304,-1.026 -0.494,-1.786 -0.19,0.76 -0.532,1.9 -0.304,1.102 -0.608,2.128 -0.266,0.988 -0.418,1.406 l -1.938,6.308 h 7.068 z M 530.27805,128 h -5.738 v -22.344 h -7.372 v -4.788 h 20.482 v 4.788 h -7.372 z m 21.99803,0 h -12.35 v -3.268 l 3.306,-1.52 v -17.556 l -3.306,-1.52 v -3.268 h 12.35 v 3.268 l -3.306,1.52 v 17.556 l 3.306,1.52 z m 20.93399,-7.524 q 0,3.61 -2.622,5.776 -2.584,2.128 -7.372,2.128 -4.294,0 -7.676,-1.634 v -5.358 q 1.938,0.836 3.99,1.558 2.09,0.684 4.142,0.684 2.128,0 3.002,-0.798 0.912,-0.836 0.912,-2.09 0,-1.026 -0.722,-1.748 -0.684,-0.722 -1.862,-1.33 -1.178,-0.646 -2.698,-1.368 -0.95,-0.456 -2.052,-1.064 -1.102,-0.646 -2.128,-1.558 -0.988,-0.95 -1.634,-2.28 -0.646,-1.33 -0.646,-3.192 0,-3.648 2.47,-5.662 2.47,-2.052 6.726,-2.052 2.128,0 4.028,0.494 1.938,0.494 4.028,1.406 l -1.862,4.484 q -1.862,-0.76 -3.344,-1.178 -1.482,-0.418 -3.04,-0.418 -1.634,0 -2.508,0.76 -0.874,0.76 -0.874,1.976 0,1.444 1.292,2.28 1.292,0.836 3.838,2.052 2.09,0.988 3.534,2.052 1.482,1.064 2.28,2.508 0.798,1.444 0.798,3.572 z M 588.90009,128 h -5.738 v -22.344 h -7.372 v -4.788 h 20.482 v 4.788 h -7.372 z m 25.79803,0 -1.976,-6.46 h -9.88 l -1.976,6.46 h -6.194 l 9.576,-27.246 h 7.03 l 9.614,27.246 z m -5.32,-17.594 q -0.19,-0.646 -0.494,-1.634 -0.304,-0.988 -0.608,-2.014 -0.304,-1.026 -0.494,-1.786 -0.19,0.76 -0.532,1.9 -0.304,1.102 -0.608,2.128 -0.266,0.988 -0.418,1.406 l -1.938,6.308 h 7.068 z"
       id="text9"
       aria-label="IGREJA BATISTA" />
    <path
       d="m 352.474,178 h -7.296 L 333.36,157.48 h -0.152 q 0.076,1.938 0.152,3.876 0.114,1.938 0.19,3.876 V 178 h -5.13 v -27.132 h 7.258 l 11.78,20.33 h 0.114 q -0.038,-1.9 -0.114,-3.762 -0.076,-1.862 -0.152,-3.724 v -12.844 h 5.168 z m 23.74599,0 -1.976,-6.46 h -9.88 l -1.976,6.46 h -6.194 l 9.576,-27.246 h 7.03 l 9.614,27.246 z m -5.32,-17.594 q -0.19,-0.646 -0.494,-1.634 -0.304,-0.988 -0.608,-2.014 -0.304,-1.026 -0.494,-1.786 -0.19,0.76 -0.532,1.9 -0.304,1.102 -0.608,2.128 -0.266,0.988 -0.418,1.406 l -1.938,6.308 h 7.068 z m 46.69403,-9.538 -9.234,27.132 h -6.27 l -9.196,-27.132 h 5.814 l 5.092,16.15 q 0.152,0.418 0.418,1.558 0.304,1.102 0.608,2.356 0.304,1.216 0.418,2.052 0.114,-0.836 0.38,-2.052 0.304,-1.254 0.608,-2.356 0.304,-1.14 0.418,-1.558 l 5.13,-16.15 z M 431.46,178 h -12.35 v -3.268 l 3.306,-1.52 v -17.556 l -3.306,-1.52 v -3.268 h 12.35 v 3.268 l -3.306,1.52 v 17.556 l 3.306,1.52 z m 4.93601,0 v -27.132 h 5.738 v 22.382 h 11.02 V 178 Z m 38.37601,0 -1.976,-6.46 h -9.88 l -1.976,6.46 h -6.194 l 9.576,-27.246 h 7.03 l 9.614,27.246 z m -5.32,-17.594 q -0.19,-0.646 -0.494,-1.634 -0.304,-0.988 -0.608,-2.014 -0.304,-1.026 -0.494,-1.786 -0.19,0.76 -0.532,1.9 -0.304,1.102 -0.608,2.128 -0.266,0.988 -0.418,1.406 l -1.938,6.308 h 7.068 z m 47.91002,3.762 q 0,6.878 -3.914,10.374 -3.876,3.458 -10.906,3.458 h -7.676 v -27.132 h 8.512 q 4.256,0 7.372,1.52 3.154,1.52 4.864,4.484 1.748,2.926 1.748,7.296 z m -5.966,0.152 q 0,-4.522 -1.976,-6.612 -1.976,-2.128 -5.738,-2.128 h -3.078 v 17.67 h 2.47 q 8.322,0 8.322,-8.93 z m 36.514,0.076 q 0,4.218 -1.406,7.372 -1.368,3.116 -4.218,4.864 -2.85,1.748 -7.296,1.748 -4.408,0 -7.296,-1.748 -2.85,-1.748 -4.256,-4.902 -1.368,-3.154 -1.368,-7.372 0,-4.218 1.368,-7.334 1.406,-3.116 4.256,-4.826 2.888,-1.748 7.334,-1.748 4.408,0 7.258,1.748 2.85,1.71 4.218,4.864 1.406,3.116 1.406,7.334 z m -19.798,0 q 0,4.256 1.634,6.726 1.634,2.432 5.244,2.432 3.686,0 5.282,-2.432 1.596,-2.47 1.596,-6.726 0,-4.294 -1.596,-6.726 -1.596,-2.432 -5.244,-2.432 -3.648,0 -5.282,2.432 -1.634,2.432 -1.634,6.726 z m 46.048,13.604 h -12.35 v -3.268 l 3.306,-1.52 v -17.556 l -3.306,-1.52 v -3.268 h 12.35 v 3.268 l -3.306,1.52 v 17.556 l 3.306,1.52 z m 13.59999,-27.132 q 5.244,0 7.638,2.28 2.432,2.242 2.432,6.194 0,2.356 -0.988,4.446 -0.988,2.052 -3.306,3.306 -2.28,1.254 -6.232,1.254 h -2.47 V 178 h -5.738 v -27.132 z m -0.304,4.712 h -2.622 v 8.056 h 1.9 q 2.432,0 3.838,-0.95 1.444,-0.988 1.444,-3.154 0,-3.952 -4.56,-3.952 z m 31.802,14.896 q 0,3.61 -2.622,5.776 -2.584,2.128 -7.372,2.128 -4.294,0 -7.676,-1.634 v -5.358 q 1.938,0.836 3.99,1.558 2.09,0.684 4.142,0.684 2.128,0 3.002,-0.798 0.912,-0.836 0.912,-2.09 0,-1.026 -0.722,-1.748 -0.684,-0.722 -1.862,-1.33 -1.178,-0.646 -2.698,-1.368 -0.95,-0.456 -2.052,-1.064 -1.102,-0.646 -2.128,-1.558 -0.988,-0.95 -1.634,-2.28 -0.646,-1.33 -0.646,-3.192 0,-3.648 2.47,-5.662 2.47,-2.052 6.726,-2.052 2.128,0 4.028,0.494 1.938,0.494 4.028,1.406 l -1.862,4.484 q -1.862,-0.76 -3.344,-1.178 -1.482,-0.418 -3.04,-0.418 -1.634,0 -2.508,0.76 -0.874,0.76 -0.874,1.976 0,1.444 1.292,2.28 1.292,0.836 3.838,2.052 2.09,0.988 3.534,2.052 1.482,1.064 2.28,2.508 0.798,1.444 0.798,3.572 z M 640.11606,178 h -15.618 v -27.132 h 15.618 v 4.712 h -9.88 v 5.966 h 9.196 v 4.712 h -9.196 v 6.992 h 9.88 z m 14.62599,-27.132 q 5.244,0 7.638,2.28 2.432,2.242 2.432,6.194 0,2.356 -0.988,4.446 -0.988,2.052 -3.306,3.306 -2.28,1.254 -6.232,1.254 h -2.47 V 178 h -5.738 v -27.132 z m -0.304,4.712 h -2.622 v 8.056 h 1.9 q 2.432,0 3.838,-0.95 1.444,-0.988 1.444,-3.154 0,-3.952 -4.56,-3.952 z"
       id="text10"
       aria-label="NA VILA DO IPSEP" />
  </g>
</svg>
